<?xml version="1.0" encoding="UTF-8" standalone="no"?>
<svg
   xmlns:dc="http://purl.org/dc/elements/1.1/"
   xmlns:cc="http://creativecommons.org/ns#"
   xmlns:rdf="http://www.w3.org/1999/02/22-rdf-syntax-ns#"
   xmlns:svg="http://www.w3.org/2000/svg"
   xmlns="http://www.w3.org/2000/svg"
   xmlns:sodipodi="http://sodipodi.sourceforge.net/DTD/sodipodi-0.dtd"
   xmlns:inkscape="http://www.inkscape.org/namespaces/inkscape"
   role="img"
   viewBox="0 0 24 24"
   version="1.1"
   id="svg6"
   sodipodi:docname="fastly.svg"
   inkscape:version="0.92.4 (5da689c313, 2019-01-14)">
  <metadata
     id="metadata12">
    <rdf:RDF>
      <cc:Work
         rdf:about="">
        <dc:format>image/svg+xml</dc:format>
        <dc:type
           rdf:resource="http://purl.org/dc/dcmitype/StillImage" />
      </cc:Work>
    </rdf:RDF>
  </metadata>
  <defs
     id="defs10" />
  <sodipodi:namedview
     pagecolor="#ffffff"
     bordercolor="#666666"
     borderopacity="1"
     objecttolerance="10"
     gridtolerance="10"
     guidetolerance="10"
     inkscape:pageopacity="0"
     inkscape:pageshadow="2"
     inkscape:window-width="640"
     inkscape:window-height="480"
     id="namedview8"
     showgrid="false"
     inkscape:zoom="9.8333333"
     inkscape:cx="12"
     inkscape:cy="12"
     inkscape:window-x="0"
     inkscape:window-y="24"
     inkscape:window-maximized="0"
     inkscape:current-layer="svg6" />
  <title
     id="title2">Fastly icon</title>
  <path
     d="M13.919 3.036V1.3h.632V0H9.377v1.3h.631v1.749a10.572 10.572 0 00-8.575 10.384C1.433 19.275 6.17 24 12 24c5.842 0 10.567-4.737 10.567-10.567 0-5.186-3.729-9.486-8.648-10.397zm-1.628 15.826v-.607h-.619v.607c-2.757-.158-4.955-2.38-5.101-5.137h.607v-.62h-.607a5.436 5.436 0 015.101-5.089v.607h.62v-.607a5.435 5.435 0 015.137 5.114h-.607v.619h.607a5.444 5.444 0 01-5.138 5.113zm2.26-7.712l-.39-.389-1.979 1.725a.912.912 0 00-.316-.06c-.534 0-.971.448-.971.995 0 .547.437.996.971.996.535 0 .972-.45.972-.996a.839.839 0 00-.049-.304Z"
     id="path4"
     style="fill:#ffffff" />
</svg>
